<?xml version="1.0" encoding="UTF-8" standalone="no"?>
<!-- Created with Inkscape (http://www.inkscape.org/) -->
<svg id="svg6510" xmlns:rdf="http://www.w3.org/1999/02/22-rdf-syntax-ns#" xmlns="http://www.w3.org/2000/svg" height="4.1828mm" width="3.8342mm" version="1.1" xmlns:cc="http://creativecommons.org/ns#" xmlns:dc="http://purl.org/dc/elements/1.1/" viewBox="0 0 13.5858 14.8209">
 <metadata id="metadata6515">
  <rdf:RDF>
   <cc:Work rdf:about="">
    <dc:format>image/svg+xml</dc:format>
    <dc:type rdf:resource="http://purl.org/dc/dcmitype/StillImage"/>
    <dc:title/>
   </cc:Work>
  </rdf:RDF>
 </metadata>
 <g id="layer1" transform="translate(329.65 -247.81)">
  <path id="path6492" fill="#b3b3b3" d="m-324.71 253.68v5.5577q0 0.1351-0.087 0.222-0.087 0.087-0.222 0.087h-0.6175q-0.1351 0-0.2219-0.087-0.087-0.087-0.087-0.222v-5.5577q0-0.135 0.087-0.2219 0.087-0.087 0.2219-0.087h0.6175q0.1351 0 0.222 0.087 0.087 0.087 0.087 0.2219zm2.4701 0v5.5577q0 0.1351-0.087 0.222-0.087 0.087-0.2219 0.087h-0.6175q-0.1351 0-0.2219-0.087-0.087-0.087-0.087-0.222v-5.5577q0-0.135 0.087-0.2219 0.087-0.087 0.2219-0.087h0.6175q0.1351 0 0.2219 0.087 0.087 0.087 0.087 0.2219zm2.4701 0v5.5577q0 0.1351-0.087 0.222-0.087 0.087-0.2219 0.087h-0.6175q-0.1351 0-0.2219-0.087-0.087-0.087-0.087-0.222v-5.5577q0-0.135 0.087-0.2219 0.087-0.087 0.2219-0.087h0.6175q0.1351 0 0.2219 0.087 0.087 0.087 0.087 0.2219zm1.235 6.9857v-9.147h-8.6453v9.147q0 0.2123 0.068 0.3908t0.1399 0.2605q0.072 0.082 0.1013 0.082h8.0278q0.029 0 0.1013-0.082 0.072-0.082 0.1399-0.2605 0.068-0.1785 0.068-0.3908zm-6.484-10.382h4.3227l-0.4632-1.1289q-0.067-0.087-0.164-0.1062h-3.0586q-0.097 0.019-0.1641 0.1062zm8.9541 0.3087v0.6175q0 0.1351-0.087 0.222-0.087 0.087-0.222 0.087h-0.9262v9.147q0 0.8009-0.4535 1.3846-0.4535 0.5838-1.0903 0.5838h-8.0278q-0.6368 0-1.0903-0.5645-0.4535-0.5644-0.4535-1.3653v-9.1856h-0.9263q-0.1351 0-0.2219-0.087-0.087-0.087-0.087-0.222v-0.6175q0-0.1351 0.087-0.2219 0.087-0.087 0.2219-0.087h2.9815l0.6754-1.6114q0.1447-0.357 0.521-0.6079 0.3763-0.2508 0.7623-0.2508h3.0876q0.3859 0 0.7622 0.2508 0.3763 0.2509 0.5211 0.6079l0.6754 1.6114h2.9814q0.1351 0 0.222 0.087 0.087 0.087 0.087 0.2219z"/>
 </g>
</svg>
