<?xml version="1.0" encoding="UTF-8" standalone="no"?>
<!-- Created with Inkscape (http://www.inkscape.org/) -->
<svg id="svg6391" xmlns:rdf="http://www.w3.org/1999/02/22-rdf-syntax-ns#" xmlns="http://www.w3.org/2000/svg" height="12.323mm" width="12.323mm" version="1.1" xmlns:cc="http://creativecommons.org/ns#" xmlns:dc="http://purl.org/dc/elements/1.1/" viewBox="0 0 43.663842 43.663842">
 <metadata id="metadata6396">
  <rdf:RDF>
   <cc:Work rdf:about="">
    <dc:format>image/svg+xml</dc:format>
    <dc:type rdf:resource="http://purl.org/dc/dcmitype/StillImage"/>
    <dc:title/>
   </cc:Work>
  </rdf:RDF>
 </metadata>
 <g id="layer1" transform="translate(156.12 -261.96)">
  <g id="g4586" transform="translate(-716.23 -39.043)">
   <circle id="path4269-9-9" cy="322.83" cx="581.95" r="21.832" fill="#71b095"/>
   <path id="path4577" d="m581.95 307.33q3.1484 0 6.0201 1.2282 2.8716 1.2282 4.9476 3.3041 2.0759 2.0759 3.3041 4.9476 1.2282 2.8716 1.2282 6.0201 0 3.1484-1.2282 6.0201-1.2282 2.8716-3.3041 4.9476-2.0759 2.0759-4.9476 3.3041-2.8716 1.2282-6.0201 1.2282-3.1484 0-6.0201-1.2282-2.8716-1.2282-4.9476-3.3041-2.0759-2.0759-3.3041-4.9476-1.2282-2.8716-1.2282-6.0201 0-3.1484 1.2282-6.0201 1.2282-2.8716 3.3041-4.9476 2.0759-2.0759 4.9476-3.3041 2.8716-1.2282 6.0201-1.2282zm0 2.2143q-3.2868 0-6.245 1.5569l3.356 3.356q1.4185-0.48438 2.889-0.48438 1.4704 0 2.889 0.48438l3.356-3.356q-2.9582-1.5569-6.245-1.5569zm-11.729 19.531 3.356-3.356q-0.48438-1.4185-0.48438-2.889 0-1.4704 0.48438-2.889l-3.356-3.356q-1.5569 2.9581-1.5569 6.245 0 3.2868 1.5569 6.245zm11.729 7.0407q3.2868 0 6.245-1.5569l-3.356-3.356q-1.4185 0.48438-2.889 0.48438-1.4704 0-2.889-0.48438l-3.356 3.356q2.9582 1.5569 6.245 1.5569zm0-6.6429q2.7506 0 4.6967-1.9461 1.9461-1.9462 1.9461-4.6967 0-2.7506-1.9461-4.6967-1.9462-1.9462-4.6967-1.9462-2.7506 0-4.6967 1.9462-1.9462 1.9462-1.9462 4.6967 0 2.7506 1.9462 4.6967t4.6967 1.9461zm8.3728-3.7539 3.356 3.356q1.5569-2.9582 1.5569-6.245t-1.5569-6.245l-3.356 3.356q0.48439 1.4185 0.48439 2.889 0 1.4704-0.48439 2.889z"/>
  </g>
 </g>
</svg>
