<?xml version="1.0" encoding="UTF-8" standalone="no"?>
<!-- Created with Inkscape (http://www.inkscape.org/) -->
<svg id="svg4438" xmlns:rdf="http://www.w3.org/1999/02/22-rdf-syntax-ns#" xmlns="http://www.w3.org/2000/svg" height="9.9253mm" width="111.61mm" version="1.1" xmlns:cc="http://creativecommons.org/ns#" xmlns:dc="http://purl.org/dc/elements/1.1/" viewBox="0 0 395.4578 35.16853">
 <metadata id="metadata4443">
  <rdf:RDF>
   <cc:Work rdf:about="">
    <dc:format>image/svg+xml</dc:format>
    <dc:type rdf:resource="http://purl.org/dc/dcmitype/StillImage"/>
    <dc:title/>
   </cc:Work>
  </rdf:RDF>
 </metadata>
 <g id="layer1" transform="translate(-142.27 -257.64)">
  <g id="g4353" transform="translate(-473.58 -162.34)">
   <g id="layer1-4" transform="matrix(.60997 0 0 .60997 536.63 138.97)">
    <path id="path3557" d="m357.14 460.68c-14.084 0-25.25 13.09-25.25 28.812s11.166 28.844 25.25 28.844 25.25-13.121 25.25-28.844c0-15.722-11.166-28.812-25.25-28.812zm0 6.6562c8.9526 0 16.619 7.3252 18.5 17.375-3.8385-4.1369-10.919-9.125-18.906-9.125-7.438 0-14.054 4.7756-18 8.7812 1.9891-9.8729 9.5558-17.031 18.406-17.031zm-0.40625 12.969c5.0889 0 9.1875 4.1298 9.1875 9.2188 0 5.0889-4.0986 9.2188-9.1875 9.2188s-9.2188-4.1298-9.2188-9.2188c0-5.0889 4.1298-9.2188 9.2188-9.2188zm18.844 14.344c-1.9891 9.866-9.587 17-18.438 17-8.4291 0-15.701-6.4553-18.094-15.594 4.0183 3.8027 10.551 7.6562 17.75 7.6562 8.0699 0 14.989-4.8818 18.781-9.0625z"/>
   </g>
   <g id="text4841">
    <path id="path4399" d="m615.86 454.03h2.3v-14.15h6.2c7.35 0 11.75-3.15 11.75-9.6 0-6.8-4.5-9.2-11.95-9.2h-8.3v32.95zm2.3-16.1v-14.9h5.45c6.8 0 10.15 1.7 10.15 7.25 0 5.4-3.25 7.65-9.95 7.65h-5.65z"/>
    <path id="path4401" d="m657.87 440.78 2.1-6.15c1.35-3.9 2.5-7.35 3.65-11.4h0.2c1.15 4.05 2.3 7.5 3.65 11.4l2.1 6.15h-11.7zm16.2 13.25h2.4l-11.6-32.95h-2.3l-11.6 32.95h2.3l3.9-11.3h13.05l3.85 11.3z"/>
    <path id="path4403" d="m696.35 454.03h2.2v-20.45c0-3.2-0.2-6.2-0.3-9.35h0.2l3.7 6.55 13.9 23.25h2.4v-32.95h-2.2v20.2c0 3.2 0.2 6.4 0.3 9.6h-0.2l-3.7-6.55-13.9-23.25h-2.4v32.95z"/>
    <path id="path4405" d="m792.08 454.03h2.3v-14.15h6.2c7.35 0 11.75-3.15 11.75-9.6 0-6.8-4.5-9.2-11.95-9.2h-8.3v32.95zm2.3-16.1v-14.9h5.45c6.8 0 10.15 1.7 10.15 7.25 0 5.4-3.25 7.65-9.95 7.65h-5.65z"/>
    <path id="path4407" d="m839.82 454.03h2.3v-30.95h10.5v-2h-23.3v2h10.5v30.95z"/>
    <path id="path4409" d="m873.55 454.03h2.3v-32.95h-2.3v32.95z"/>
    <path id="path4411" d="m911.93 454.63c4.25 0 7.25-1.8 9.8-4.7l-1.35-1.45c-2.4 2.65-4.95 4.05-8.35 4.05-7.1 0-11.5-5.9-11.5-15.05s4.45-14.9 11.7-14.9c3 0 5.4 1.35 7.2 3.4l1.35-1.55c-1.75-2.05-4.75-3.95-8.6-3.95-8.35 0-14.05 6.55-14.05 17 0 10.5 5.65 17.15 13.8 17.15z"/>
    <path id="path4413" d="m953.39 454.63c7.95 0 13.6-6.75 13.6-17.2 0-10.4-5.65-16.95-13.6-16.95-7.9 0-13.55 6.55-13.55 16.95 0 10.45 5.65 17.2 13.55 17.2zm0-2.1c-6.7 0-11.15-5.95-11.15-15.1 0-9.1 4.45-14.85 11.15-14.85s11.15 5.75 11.15 14.85c0 9.15-4.45 15.1-11.15 15.1z"/>
    <path id="path4415" d="m989.21 454.03h2.2v-20.45c0-3.2-0.2-6.2-0.3-9.35h0.2l3.7 6.55 13.9 23.25h2.4v-32.95h-2.2v20.2c0 3.2 0.2 6.4 0.3 9.6h-0.2l-3.7-6.55-13.9-23.25h-2.4v32.95z"/>
   </g>
  </g>
 </g>
</svg>
