<?xml version="1.0" encoding="UTF-8" standalone="no"?>
<!-- Created with Inkscape (http://www.inkscape.org/) -->
<svg id="svg5045" xmlns:rdf="http://www.w3.org/1999/02/22-rdf-syntax-ns#" xmlns="http://www.w3.org/2000/svg" height="12.323mm" width="12.323mm" version="1.1" xmlns:cc="http://creativecommons.org/ns#" xmlns:dc="http://purl.org/dc/elements/1.1/" viewBox="0 0 43.663842 43.663842">
 <metadata id="metadata5050">
  <rdf:RDF>
   <cc:Work rdf:about="">
    <dc:format>image/svg+xml</dc:format>
    <dc:type rdf:resource="http://purl.org/dc/dcmitype/StillImage"/>
    <dc:title/>
   </cc:Work>
  </rdf:RDF>
 </metadata>
 <g id="layer1" transform="translate(276.12 6.6126)">
  <circle id="path4269" cx="-254.29" cy="15.219" r="21.832" fill="#71b095"/>
  <path id="path4260" d="m-238.05 16.938q0-0.60777-0.92032-0.60777h-18.893q-0.6946 0-1.4847 0.37334t-1.2416 0.91167l-5.1052 6.3034q-0.31256 0.41674-0.31256 0.69458 0 0.60776 0.92032 0.60776h18.893q0.69458 0 1.4934-0.38202 0.79879-0.38202 1.2329-0.92032l5.1052-6.3034q0.31256-0.38203 0.31256-0.67724zm-19.813-2.8304h13.336v-2.7784q0-0.6946-0.48622-1.1808-0.48622-0.48621-1.1808-0.48621h-10.002q-0.6946 0-1.1808-0.4862-0.4862-0.48622-0.4862-1.1808v-1.1113q0-0.69459-0.48622-1.1808-0.48621-0.48622-1.1808-0.48622h-5.5567q-0.69456 0-1.1808 0.48622-0.48619 0.48621-0.48619 1.1808v14.812l4.4454-5.4699q0.76405-0.92032 2.0143-1.5194 1.2503-0.5991 2.4311-0.5991zm22.036 2.8304q0 1.0766-0.79877 2.0838l-5.1226 6.3034q-0.74668 0.92033-2.0143 1.5194t-2.4311 0.59907h-18.893q-1.5975 0-2.7436-1.1461t-1.1461-2.7436v-16.67q0-1.5976 1.1461-2.7436 1.1461-1.1461 2.7436-1.1461h5.5567q1.5976 0 2.7436 1.1461 1.1461 1.1461 1.1461 2.7436v0.55567h9.4464q1.5976 0 2.7436 1.1461 1.1461 1.1461 1.1461 2.7436v2.7784h3.334q0.93768 0 1.7191 0.42544 0.78141 0.42543 1.1634 1.2242 0.26046 0.55566 0.26046 1.1808z"/>
 </g>
</svg>
