<?xml version="1.0" encoding="UTF-8" standalone="no"?>
<!-- Created with Inkscape (http://www.inkscape.org/) -->
<svg id="svg4403" xmlns:rdf="http://www.w3.org/1999/02/22-rdf-syntax-ns#" xmlns="http://www.w3.org/2000/svg" height="14.26mm" width="14.26mm" version="1.1" xmlns:cc="http://creativecommons.org/ns#" xmlns:dc="http://purl.org/dc/elements/1.1/" viewBox="0 0 50.52756 50.52758">
 <metadata id="metadata4408">
  <rdf:RDF>
   <cc:Work rdf:about="">
    <dc:format>image/svg+xml</dc:format>
    <dc:type rdf:resource="http://purl.org/dc/dcmitype/StillImage"/>
    <dc:title/>
   </cc:Work>
  </rdf:RDF>
 </metadata>
 <g id="layer1" transform="translate(685.26 44.33)">
  <path id="path4208" fill="#555" d="m-660-44.33q6.8751 0 12.681 3.3883 5.806 3.3882 9.1943 9.1943 3.3882 5.806 3.3882 12.681 0 6.8752-3.3882 12.681-3.3882 5.806-9.1943 9.1943-5.8061 3.3882-12.681 3.3882-6.8752 0-12.681-3.3882-5.8061-3.3883-9.1943-9.1943t-3.3882-12.681q0-6.8752 3.3882-12.681 3.3882-5.806 9.1943-9.1943 5.806-3.3883 12.681-3.3883zm4.2106 41.021v-6.2501q0-0.46055-0.296-0.77311-0.29607-0.31248-0.72371-0.31248h-6.316q-0.42766 0-0.75662 0.32897-0.32897 0.32896-0.32897 0.75662v6.2501q0 0.42766 0.32897 0.75662 0.32896 0.32897 0.75662 0.32897h6.316q0.42764 0 0.72371-0.31248 0.296-0.31256 0.296-0.77311zm-0.0659-11.316 0.59212-20.428q0-0.39476-0.32896-0.59214-0.32896-0.26318-0.78944-0.26318h-7.2371q-0.46055 0-0.78951 0.26318-0.32889 0.19738-0.32889 0.59214l0.55915 20.428q0 0.32896 0.32897 0.57573 0.32896 0.24668 0.78951 0.24668h6.0857q0.46053 0 0.77301-0.24668 0.31248-0.24677 0.34539-0.57573z"/>
 </g>
</svg>
