<?xml version="1.0" encoding="UTF-8" standalone="no"?>
<!-- Created with Inkscape (http://www.inkscape.org/) -->

<svg
   xmlns:dc="http://purl.org/dc/elements/1.1/"
   xmlns:cc="http://creativecommons.org/ns#"
   xmlns:rdf="http://www.w3.org/1999/02/22-rdf-syntax-ns#"
   xmlns:svg="http://www.w3.org/2000/svg"
   xmlns="http://www.w3.org/2000/svg"
   xmlns:sodipodi="http://sodipodi.sourceforge.net/DTD/sodipodi-0.dtd"
   xmlns:inkscape="http://www.inkscape.org/namespaces/inkscape"
   width="35.168289"
   height="35.168289"
   viewBox="0 0 35.16829 35.16829"
   id="svg4183"
   version="1.1"
   inkscape:version="0.91 r13725"
   sodipodi:docname="panopticon.svg">
  <defs
     id="defs4185" />
  <sodipodi:namedview
     id="base"
     pagecolor="#ffffff"
     bordercolor="#666666"
     borderopacity="1.0"
     inkscape:pageopacity="0.0"
     inkscape:pageshadow="2"
     inkscape:zoom="5.6"
     inkscape:cx="-31.607572"
     inkscape:cy="12.157561"
     inkscape:document-units="px"
     inkscape:current-layer="layer1"
     showgrid="false"
     fit-margin-top="0"
     fit-margin-left="0"
     fit-margin-right="0"
     fit-margin-bottom="0"
     units="px"
     inkscape:window-width="1916"
     inkscape:window-height="507"
     inkscape:window-x="0"
     inkscape:window-y="40"
     inkscape:window-maximized="0" />
  <metadata
     id="metadata4188">
    <rdf:RDF>
      <cc:Work
         rdf:about="">
        <dc:format>image/svg+xml</dc:format>
        <dc:type
           rdf:resource="http://purl.org/dc/dcmitype/StillImage" />
        <dc:title></dc:title>
      </cc:Work>
    </rdf:RDF>
  </metadata>
  <g
     inkscape:label="Layer 1"
     inkscape:groupmode="layer"
     id="layer1"
     transform="translate(-316.02689,-409.06377)">
    <g
       id="layer1-4"
       transform="matrix(0.60996749,0,0,0.60996749,115.58478,128.06396)">
      <path
         id="path3557"
         d="m 357.14,460.68 c -14.084,0 -25.25,13.09 -25.25,28.812 0,15.722 11.166,28.844 25.25,28.844 14.084,0 25.25,-13.121 25.25,-28.844 0,-15.722 -11.166,-28.812 -25.25,-28.812 z m 0,6.6562 c 8.9526,0 16.619,7.3252 18.5,17.375 -3.8385,-4.1369 -10.919,-9.125 -18.906,-9.125 -7.438,0 -14.054,4.7756 -18,8.7812 1.9891,-9.8729 9.5558,-17.031 18.406,-17.031 z m -0.40625,12.969 c 5.0889,0 9.1875,4.1298 9.1875,9.2188 0,5.0889 -4.0986,9.2188 -9.1875,9.2188 -5.0889,0 -9.2188,-4.1298 -9.2188,-9.2188 0,-5.0889 4.1298,-9.2188 9.2188,-9.2188 z m 18.844,14.344 c -1.9891,9.866 -9.587,17 -18.438,17 -8.4291,0 -15.701,-6.4553 -18.094,-15.594 4.0183,3.8027 10.551,7.6562 17.75,7.6562 8.0699,0 14.989,-4.8818 18.781,-9.0625 z"
         inkscape:connector-curvature="0" />
    </g>
  </g>
</svg>
