<?xml version="1.0" encoding="UTF-8" standalone="no"?>
<!-- Created with Inkscape (http://www.inkscape.org/) -->
<svg id="svg5743" xmlns:rdf="http://www.w3.org/1999/02/22-rdf-syntax-ns#" xmlns="http://www.w3.org/2000/svg" height="12.323mm" width="12.323mm" version="1.1" xmlns:cc="http://creativecommons.org/ns#" xmlns:dc="http://purl.org/dc/elements/1.1/" viewBox="0 0 43.663842 43.663842">
 <metadata id="metadata5748">
  <rdf:RDF>
   <cc:Work rdf:about="">
    <dc:format>image/svg+xml</dc:format>
    <dc:type rdf:resource="http://purl.org/dc/dcmitype/StillImage"/>
    <dc:title/>
   </cc:Work>
  </rdf:RDF>
 </metadata>
 <g id="layer1" transform="translate(464.69 -24.816)">
  <g id="g4517" transform="translate(-922.79 -288.35)">
   <circle id="path4269-9" cy="335" cx="479.93" r="21.832" fill="#71b095"/>
   <path id="path4493" d="m473 344.16 5.9361-2.968v-4.854l-5.9361 2.5352v5.2868zm-0.98934-7.0182 6.2453-2.6743-6.2453-2.6744-6.2453 2.6744zm16.819 7.0182 5.9361-2.968v-4.854l-5.9361 2.5352v5.2868zm-0.98938-7.0182 6.2453-2.6743-6.2453-2.6744-6.2453 2.6744zm-6.9255-4.5294 5.9361-2.5507v-4.112l-5.9361 2.5352v4.1275zm-0.98935-5.8588 6.8173-2.9217-6.8173-2.9217-6.8172 2.9217zm16.819 8.0076v6.4308q0 0.55651-0.29373 1.0357-0.29371 0.47922-0.80384 0.72656l-6.9255 3.4627q-0.38645 0.21642-0.88116 0.21642-0.49467 0-0.8811-0.21642l-6.9255-3.4627q-0.0773-0.0309-0.10817-0.0619-0.0308 0.0309-0.10818 0.0619l-6.9255 3.4627q-0.38648 0.21642-0.88115 0.21642-0.49468 0-0.88114-0.21642l-6.9255-3.4627q-0.51012-0.24734-0.80385-0.72656-0.29371-0.47921-0.29371-1.0357v-6.4308q0-0.58743 0.33238-1.0821 0.33235-0.49468 0.87337-0.742l6.7091-2.8753v-6.1834q0-0.58742 0.33237-1.0821 0.33234-0.49468 0.87342-0.74201l6.9255-2.968q0.35555-0.15459 0.77292-0.15459t0.77291 0.15459l6.9255 2.968q0.54107 0.24733 0.87341 0.74201 0.33239 0.49469 0.33239 1.0821v6.1834l6.709 2.8753q0.5565 0.24732 0.88111 0.742 0.32465 0.49468 0.32465 1.0821z"/>
  </g>
 </g>
</svg>
